<?xml version="1.0" encoding="UTF-8" standalone="no"?>
<!-- Created with Inkscape (http://www.inkscape.org/) -->

<svg
   width="210mm"
   height="297mm"
   viewBox="0 0 210 297"
   version="1.1"
   id="svg5"
   inkscape:version="1.1.1 (3bf5ae0d25, 2021-09-20)"
   sodipodi:docname="we_the_people.svg"
   xmlns:inkscape="http://www.inkscape.org/namespaces/inkscape"
   xmlns:sodipodi="http://sodipodi.sourceforge.net/DTD/sodipodi-0.dtd"
   xmlns="http://www.w3.org/2000/svg"
   xmlns:svg="http://www.w3.org/2000/svg">
  <sodipodi:namedview
     id="namedview7"
     pagecolor="#ffffff"
     bordercolor="#666666"
     borderopacity="1.0"
     inkscape:pageshadow="2"
     inkscape:pageopacity="0.0"
     inkscape:pagecheckerboard="0"
     inkscape:document-units="mm"
     showgrid="false"
     inkscape:zoom="1"
     inkscape:cx="400"
     inkscape:cy="538.5"
     inkscape:window-width="1920"
     inkscape:window-height="1017"
     inkscape:window-x="-8"
     inkscape:window-y="-8"
     inkscape:window-maximized="1"
     inkscape:current-layer="layer1" />
  <defs
     id="defs2" />
  <g
     inkscape:label="Layer 1"
     inkscape:groupmode="layer"
     id="layer1">
    <path
       style="fill:#000000;stroke:none;stroke-width:0.114386"
       d="m 117.6364,138.76807 c -1.04801,0.38 -1.39952,1.86656 -2.86412,1.2618 -2.15709,-0.89073 -4.04035,-5.42786 -0.79624,-6.25132 3.06051,-0.77703 6.48501,2.19976 8.11855,4.4176 3.52413,4.78511 5.54533,12.015 3.57755,17.84424 -0.28768,0.85206 -1.03348,1.37984 -1.40135,2.17333 1.55829,-0.52972 2.52336,-2.66588 3.01213,-4.1179 1.33809,-3.97549 1.15702,-8.3368 -0.35963,-12.23932 -0.49609,-1.27655 -1.13974,-2.33508 -1.94856,-3.43158 -0.22901,-0.31056 -0.77245,-0.83159 -0.59904,-1.25379 0.26136,-0.6361 2.27308,-2.38335 2.98353,-2.3527 0.55992,0.0241 1.0901,0.60923 1.48702,0.94415 1.11252,0.939 3.13761,2.30511 2.65502,4.03497 -0.12342,0.44211 -0.46693,1.35548 -1.01656,1.40821 -0.40034,0.0384 -0.97513,-1.09388 -1.3406,-0.2473 -0.38822,0.8993 0.62444,1.28444 1.30355,0.96187 1.47706,-0.70176 2.56167,-2.43059 2.50986,-4.06734 -0.0446,-1.41119 -1.6618,-2.44615 -2.62425,-3.28495 -0.40093,-0.34944 -1.06334,-0.8198 -1.11504,-1.40477 -0.0445,-0.50479 0.60682,-0.90777 0.77188,-1.37275 -1.59443,0.54208 -3.12915,2.7304 -4.46106,3.79762 -0.4047,0.32429 -0.96095,0.99676 -1.48702,1.0917 -0.74626,0.13464 -2.14611,-1.74622 -2.85965,-2.12998 -2.88768,-1.55325 -8.92762,-2.95208 -9.69011,1.70172 -0.0906,0.5534 -0.10226,1.16411 0.0105,1.71579 0.20635,1.00935 0.83834,2.0251 1.78694,2.46914 1.53461,0.71846 3.98419,0.20509 4.34668,-1.66844 m 55.59167,18.64495 c 1.96973,-0.33343 2.92714,0.49861 4.68983,1.25825 -0.95169,1.28136 -3.03009,1.76074 -3.66036,3.3172 0.80643,-0.37382 1.45843,-1.10245 2.17335,-1.62932 1.30171,-0.95935 2.61028,-1.67793 3.77473,-2.83128 0.43467,-0.43078 1.69177,-2.15012 2.28315,-2.15012 0.50445,0 1.13586,1.01483 1.4916,1.32791 1.03633,0.91131 2.35864,1.54204 3.66035,1.96561 l -4.57544,3.66036 c 1.18733,-0.12892 2.01548,-1.38797 2.97404,-2.01503 2.50277,-1.63778 4.68068,-3.28689 6.57148,-5.64884 0.58223,-0.72739 1.42526,-1.482 1.66432,-2.40211 -1.81759,1.02649 -2.44443,3.68643 -4.34667,4.65334 -0.69661,0.35448 -1.58311,-0.15008 -2.17334,-0.52126 -1.44012,-0.90525 -3.60888,-2.26222 -3.20281,-4.13208 -1.57167,0.37323 -0.21505,-1.15725 0.22877,-1.60141 1.11641,-1.11675 2.16647,-2.26051 3.22226,-3.43159 0.47699,-0.52846 1.15416,-1.01484 1.35319,-1.71579 l -0.8007,0.45754 c 0.18988,-1.89206 1.25481,-3.70462 -0.9151,-4.99261 -0.39349,-0.23381 -0.82129,-0.37129 -1.25825,-0.49792 l 0.22878,-0.57193 c -1.77985,0.35414 -3.35838,2.26884 -4.69441,3.38011 -0.56964,0.47436 -1.26969,0.78263 -1.48244,1.53849 l 1.14386,-0.57193 c -0.65887,2.48287 -1.03519,4.51711 -0.65201,7.09194 0.15214,1.01896 1.26626,2.35819 1.14959,3.31721 -0.0812,0.67224 -1.56481,2.17173 -2.21338,2.36756 -0.52045,0.15728 -1.37034,-0.51943 -1.83017,-0.73619 -0.86133,-0.4063 -1.73524,-0.27441 -2.63088,-0.48752 0.49415,-0.93819 1.07065,-1.78568 1.22393,-2.85965 0.33401,-2.33645 -0.96771,-5.24209 -1.91368,-7.32072 -0.38319,-0.8413 -0.75266,-1.69017 -1.16903,-2.51649 -0.16014,-0.31937 -0.52617,-0.76925 -0.50901,-1.1394 0.0286,-0.62627 1.3772,-1.39666 1.78556,-1.83509 1.30515,-1.40467 2.14932,-2.98126 1.68262,-4.91816 -0.80871,-3.36352 -5.09247,-3.28974 -6.85402,-0.79624 -1.92283,2.72228 0.69776,6.75462 1.95029,9.26082 1.24109,2.48218 2.40783,5.12347 3.22797,7.77826 0.31571,1.01964 0.71606,2.6096 0.38663,3.66036 -0.31113,0.98944 -1.50989,1.39848 -1.9846,2.28772 M 34.9352,140.71264 c -0.02848,-0.70565 0.121135,-1.88131 -0.231517,-2.50448 -0.432723,-0.76468 -1.956575,-1.12888 -2.742522,-1.38465 v -0.22877 l 4.346673,-2.54258 1.601407,-1.23216 c -1.26717,0.24433 -2.570715,1.4312 -3.660358,2.11282 -2.392501,1.49629 -6.328242,2.53091 -8.007031,4.86473 1.26248,-0.32817 2.139171,-1.73226 3.431585,-2.00542 0.715771,-0.15122 1.938273,0.43273 2.509747,0.8404 0.528464,0.3769 0.437641,0.93556 0.512793,1.50818 0.176956,1.34701 0.06589,2.76026 0.06589,4.1179 0,2.78382 0.306212,5.60183 0.736532,8.35019 0.269495,1.7214 0.867048,3.68655 0.640906,5.44204 -0.09139,0.70988 -0.851376,1.15553 -1.034279,1.87868 l 0.114386,0.11438 c 1.504864,-0.65611 2.536398,-0.12445 4.003516,0.53693 0.404011,0.18222 1.442752,0.44119 1.220843,1.06619 -0.511078,1.43955 -3.213908,2.65891 -3.051023,4.34497 1.144549,-0.59538 1.874104,-2.10655 2.683958,-3.08843 1.453504,-1.76223 2.968663,-3.47803 4.406726,-5.2573 0.562895,-0.69627 1.340607,-1.36635 1.717051,-2.1778 h 0.228772 c 0.490145,1.74416 -0.520457,2.22778 -0.800703,3.77474 0.743853,-0.10604 1.172344,-0.38297 1.944565,-0.12697 1.173717,0.38891 3.328294,2.1094 4.575447,1.4018 5.562369,-3.15603 7.87034,-10.95762 6.480433,-16.83135 -0.734703,-3.10513 -1.907387,-5.82214 -5.107799,-6.86317 v -0.22877 l 3.20281,-1.83018 v -0.11439 l -2.402109,1.20689 -4.804217,3.28781 -2.287724,1.56777 -0.297746,-1.69143 -3.248225,-2.31209 c 1.606097,-0.79898 3.052052,-1.93221 4.689833,-2.71129 0.602472,-0.28665 1.601635,-0.62272 1.830179,-1.29222 l -3.317199,1.71442 -6.520011,3.90812 -3.431585,2.38449 m 50.329906,3.77474 c -0.18199,1.32036 1.12716,3.11577 1.59408,4.34668 0.76593,2.01926 1.87994,4.85238 1.13963,6.97755 -0.27624,0.79293 -0.95615,1.33272 -1.36107,2.05896 1.92202,-0.32417 2.88058,1.20963 4.57544,1.83017 -1.58974,3.40883 -5.49191,1.88543 -8.2358,1.25825 1.08576,-1.41335 3.4659,-2.90952 3.88913,-4.68983 l -2.17345,1.96424 -1.60129,-0.77725 -2.74527,-0.61506 c 0.0876,-0.87425 0.56564,-1.65677 0.74179,-2.51649 0.21665,-1.05682 0.0723,-2.3845 -0.14916,-3.43159 -0.34876,-1.64968 -0.68952,-3.45927 -1.30229,-5.03299 -0.44221,-1.13586 -1.32847,-2.51204 -1.30846,-3.76971 0.0106,-0.6671 0.90205,-0.419 0.96668,-1.04068 0.0987,-0.94999 -0.98029,-0.40905 -1.2658,-1.04023 -0.55042,-1.21719 0.68175,-2.32467 1.28776,-3.18589 -1.45659,0.4651 -2.30636,2.20342 -3.23999,3.3172 -0.45136,0.53864 -1.03496,0.95696 -1.33546,1.60141 0.5017,-0.0215 1.46392,-0.35598 1.81016,0.15076 0.58715,0.85949 0.43891,2.71027 0.70634,3.73836 0.8619,3.31297 2.57232,6.93387 2.39753,10.40915 -0.0557,1.10771 -1.09387,1.53963 -1.36805,2.51649 1.37869,-0.38937 3.86774,0.56027 4.80422,1.71579 -2.13593,0.94438 -4.6983,-0.0155 -6.06201,2.40211 -0.31834,0.56427 -0.52721,1.0765 -0.34362,1.7158 h 0.22878 c 0.92012,-2.64816 3.25291,-1.99169 5.49053,-1.32562 2.17334,0.75368 0,0 2.17334,0.75368 l 2.05895,0.28266 c 1.22496,-0.28083 2.41468,-0.70176 3.66035,-0.96897 1.18733,-0.25474 2.08137,-1.04938 3.20281,-1.37995 0.87929,-0.2592 1.61926,0.44736 2.17334,-0.679 l -1.37263,-0.11439 v -0.11438 c 4.0169,-2.95643 4.43155,-10.23928 2.78965,-14.52705 -0.77497,-2.02406 -2.26599,-4.26237 -4.61984,-4.57544 l 1.14387,-1.25825 c -0.65109,0.0285 -1.12338,0.6234 -1.57327,1.05933 -0.85195,0.82541 -1.76669,1.58436 -2.6207,2.41229 -0.31342,0.30369 -1.05064,1.26614 -1.51744,1.21398 -0.55398,-0.062 -1.18139,-1.57029 -0.8523,-2.01182 0.6599,-0.88535 1.88543,-1.57476 2.67447,-2.3837 2.10401,-2.15664 3.35197,-6.79225 -0.68621,-7.64866 -4.71407,-0.99973 -6.24513,5.40509 -5.14726,8.73121 0.29009,0.87906 0.54414,2.10425 1.37252,2.63088 m 86.24717,-10.82161 c 2.22595,-0.50067 4.35239,2.19964 4.09617,4.3016 -0.10867,0.89462 -0.86133,1.67564 -1.46529,2.28773 -0.33744,0.34064 -0.76639,0.92927 -1.25825,1.04205 -0.6989,0.16049 -1.30858,-1.26545 -1.62314,-1.72837 -1.06493,-1.56435 -2.85393,-5.2048 0.25051,-5.90301 m -81.67172,6.24617 c -0.78744,0.77668 -1.65666,2.81184 -2.97233,2.87887 -0.61219,0.0312 -0.96942,-1.07684 -1.21146,-1.50624 -0.93602,-1.66065 -1.64419,-4.10864 -0.72338,-5.94808 1.00202,-2.00164 3.75404,-1.70149 4.75697,0.1145 0.87552,1.58551 0.25097,2.85462 0.1502,4.46095 m -29.626016,-2.5165 h 0.228775 c 0.318563,-0.55077 0.72372,-0.94631 1.258243,-1.29267 3.628218,-2.35087 6.468538,0.9335 9.951598,1.70172 1.24132,0.27372 3.93888,0.912 4.68983,-0.52343 -4.43075,2.26382 -7.39267,-3.39018 -11.78178,-2.65891 -1.26213,0.21024 -4.441379,1.13642 -4.346666,2.77329 m 93.110326,7.4351 c 0.64286,-0.30026 1.12785,-1.38533 1.83019,-1.44229 1.91367,-0.15534 2.47874,2.6676 2.80589,3.95879 0.12239,0.4834 0.40149,1.10726 0.23678,1.6014 -0.61197,1.84014 -2.86195,3.48329 -4.18654,4.80422 -0.0297,-0.95215 0.19103,-1.89389 0.0949,-2.85965 -0.25851,-2.58387 -1.60827,-5.36597 -3.26686,-7.3206 -1.73753,-2.0498 -3.83881,-3.27751 -5.95953,-1.02513 -0.38433,0.40893 -0.74579,0.873 -1.01231,1.36817 -1.16216,2.16122 -1.21936,4.95498 -0.80871,7.32072 0.17043,0.98017 1.07752,3.29947 0.493,4.1179 -0.49072,0.68723 -1.83132,2.20834 -2.69493,2.3551 -1.9846,0.3371 -4.25517,-2.29573 -5.1245,-3.72773 -0.28368,-0.4683 -0.79042,-1.14283 -0.77326,-1.71534 0.0229,-0.77188 1.26512,-1.30904 1.77985,-1.75056 1.30401,-1.11756 3.39041,-2.86641 4.11791,-4.42675 l -1.14386,0.8007 -0.11439,-0.11438 c 0.94826,-2.24483 -0.12468,-4.59947 -2.40211,-5.37615 l 1.14386,-1.25825 c -1.67233,0.55466 -3.26687,2.36139 -4.57545,3.49747 -0.59835,0.51943 -1.37446,1.03852 -1.71578,1.7643 l 0.91508,-0.45755 c -0.0876,2.00988 -0.59801,3.8905 -0.44725,5.94808 0.28849,3.93546 2.75785,7.70128 6.50972,8.92212 v 0.22877 l -2.97862,2.40177 -1.59683,1.48736 c 2.68579,-1.27049 5.10849,-3.92184 7.10224,-6.06246 0.37175,-0.39932 1.92855,-2.29688 2.48675,-2.13376 0.62684,0.18301 1.10726,1.51848 1.49274,2.00873 0.60396,0.77005 1.68262,1.3692 2.53022,1.84082 v 0.11438 c -1.49045,1.01884 -3.59058,2.22665 -4.68983,3.66036 1.28913,-0.19811 2.81962,-1.79597 3.88913,-2.54841 4.28834,-3.01762 7.53347,-7.50133 11.20984,-11.17793 0.4301,1.35467 0.64286,2.83197 0.8865,4.23229 0.0778,0.44656 0.29397,1.14066 0.0252,1.55634 -0.2425,0.37587 -0.87735,0.47207 -1.25482,0.67167 -0.79841,0.42312 -1.54879,1.03005 -1.88966,1.88989 -0.41065,1.03577 0.17959,1.89824 1.31773,1.71579 -0.37633,-0.3165 -0.97114,-0.56884 -0.96427,-1.14397 0.0114,-1.05224 1.85419,-2.06833 2.77843,-1.57636 0.6337,0.33801 0.46098,1.43955 0.53991,2.03401 0.0858,0.65727 0,0 0.0938,2.60687 0.0686,0.71055 0,0 -1.7e-4,2.74606 -21.74664,7.98567 1.54124,1.46224 4.87302,-2.73488 1.9949,-1.5417 4.34896,-2.91261 5.8337,-5.02018 -0.85676,-0.0199 -1.73982,1.24647 -2.33577,1.80776 -1.83933,1.73135 -3.93145,3.11462 -5.90004,4.71225 l -0.34315,-5.03299 c 1.26282,6.8e-4 2.47646,0.34613 3.66036,-0.26012 0.8556,-0.43775 1.44812,-1.21295 2.07839,-1.91322 0.58108,-0.6457 1.15416,-1.26088 1.52591,-2.05895 1.64373,-3.53201 -1.97773,-6.5979 -3.99551,-8.92212 -0.6234,-0.71788 -1.58768,-1.5394 -1.78442,-2.51649 -0.2242,-1.12007 1.38293,-2.09304 1.71808,-3.08843 -0.86476,0.24467 -1.30286,1.25687 -1.80159,1.94457 -1.05463,1.45716 -2.26141,3.47848 -3.68895,4.57544 l -0.34316,-2.51649 c -0.63712,-0.33584 -2.77615,-1.17498 -2.88596,-1.95521 -0.0606,-0.42677 0.54105,-0.94288 0.77897,-1.24761 0.67602,-0.86819 1.71579,-1.89675 1.99261,-2.97404 -0.76868,0.39281 -1.28342,1.38614 -1.80616,2.05896 -1.34633,1.73283 -3.33436,3.62558 -4.25631,5.60492 m -118.618447,1.6014 v -0.91509 c 0.372556,0 0.114386,-2.27262 0.114386,-2.74527 0,-1.9982 1.966298,-2.94269 3.431585,-4.0416 0.429978,-0.32257 1.353073,-1.22176 1.944564,-0.93419 0.697184,0.33892 1.296911,1.13253 1.944566,1.5823 0.314447,0.21837 0.85046,0.41534 1.029475,0.76261 0.503299,0.97606 0.12388,2.69574 0.228772,3.77474 0.26652,2.74161 0.419683,5.49294 0.686317,8.23581 0.07229,0.74385 0.395204,1.53781 0.343158,2.28772 -0.09059,1.30492 -2.256038,2.90312 -3.050336,3.88913 -0.330003,0.40974 -0.696954,1.01015 -1.296337,0.877 -0.968165,-0.21516 -2.837349,-0.86098 -3.412483,-1.6777 -0.387311,-0.54985 -0.285164,-1.31544 -0.381364,-1.94457 -0.256339,-1.67781 -0.395661,-3.36318 -0.743509,-5.03298 -0.197889,-0.94987 -0.495636,-2.00714 -0.495636,-2.97405 0,-0.45011 0.1463,-0.98555 -0.343158,-1.14386 m 15.098976,-8.41767 c 1.961266,-0.38675 3.356658,2.92771 3.912115,4.29977 1.677593,4.14467 1.922721,8.61888 0.298548,12.81125 -0.398064,1.02753 -1.396081,3.41774 -2.609376,3.6814 -0.347617,0.0755 -0.722349,-0.1853 -1.029361,-0.31284 -0.763183,-0.31696 -3.051135,-0.95924 -3.341676,-1.77916 -0.185877,-0.52458 0.464409,-0.86911 0.328632,-1.34873 -0.154307,-0.54505 -0.795441,-0.85858 -0.947575,-1.49892 -0.632212,-2.66073 -0.603844,-5.62734 -0.863043,-8.35019 -0.108095,-1.1362 -0.538302,-3.03969 -0.124453,-4.11778 0.171809,-0.44748 0.593779,-0.74352 0.944602,-1.04446 0.874024,-0.74957 2.277199,-2.11283 3.431587,-2.34034 m 49.986751,6.93065 h 0.45754 c -1.70184,5.23203 -0.78892,12.5254 4.91861,14.87021 l -4.57545,3.77474 c 1.12922,-0.26778 2.16521,-1.41061 3.08843,-2.08927 2.70923,-1.99169 5.1873,-4.12178 7.48531,-6.58464 0.8571,-0.91863 2.5507,-1.9401 2.80944,-3.22225 -1.93278,1.36519 -3.26058,3.51085 -5.03299,5.06559 -0.52183,0.45777 -1.13746,1.22793 -1.83018,1.41987 -0.58165,0.16106 -1.29004,-0.47916 -1.71579,-0.80459 -1.15999,-0.88684 -2.18375,-1.98849 -2.8783,-3.27876 -0.23575,-0.43799 -0.62821,-1.08084 -0.4739,-1.6013 0.19525,-0.65898 1.13848,-1.21833 1.63641,-1.65002 1.15655,-1.00294 3.00927,-2.33004 3.66036,-3.72624 l -0.80071,0.45754 c 0.37519,-2.20696 1.32436,-5.62013 -1.94456,-6.06247 l 0.11438,-0.57192 c -0.93247,0.39486 -1.50681,1.29016 -2.28773,1.90739 -0.82986,0.656 -2.15217,1.11446 -2.63087,2.09612 m -33.97269,-3.66035 c -1.13975,0.76581 -3.02289,1.60072 -3.66036,2.85965 -0.740305,0.0267 -1.415071,0.72818 -1.715788,1.37263 l 0.571927,-0.11438 c -0.278073,1.32928 -0.878256,2.50963 -1.010028,3.88913 -0.458116,4.79392 1.159072,9.96829 6.386179,11.20984 -0.90548,2.03139 -3.66425,2.66165 -4.575444,4.57545 1.110224,-0.35151 1.965604,-1.28764 2.855074,-2.00141 2.66291,-2.13685 4.79873,-4.88761 7.10681,-7.37826 1.01724,-1.09765 2.61041,-2.31014 3.07813,-3.77474 -0.76513,0.35974 -1.31441,1.20025 -1.86243,1.83018 -1.03851,1.19361 -2.06753,2.41343 -3.17227,3.54597 -0.43273,0.4437 -0.97423,1.20552 -1.56709,1.42925 -0.48397,0.18279 -1.21501,-0.34704 -1.63401,-0.54825 -1.68971,-0.81122 -2.88001,-2.15114 -3.81992,-3.74066 -0.28918,-0.48888 -0.919668,-1.46437 -0.63336,-2.04831 0.27224,-0.55512 1.12178,-0.94334 1.59363,-1.32025 1.06425,-0.85011 2.0188,-1.81496 3.08842,-2.66119 0.52492,-0.41534 1.28135,-0.73653 1.48702,-1.40535 l -1.37263,0.80071 c 0.5439,-1.32608 1.36497,-3.42358 0.5391,-4.80411 -0.44519,-0.7442 -1.27163,-0.96095 -1.68296,-1.7159 m 117.47458,10.18036 c -1.35204,-2.31712 -1.60026,-5.15721 -0.68059,-7.66387 0.3809,-1.03553 1.4241,-2.63386 2.73954,-2.15801 1.37493,0.4977 1.79587,1.98094 1.82904,3.30187 0.0549,2.27423 -0.74122,3.48444 -2.29573,5.09888 -0.48614,0.50467 -0.92081,1.17314 -1.59226,1.42113 M 78.17314,141.74212 v 0.22877 l -0.22878,-0.22877 h 0.22878 m 68.74608,10.29475 -0.11439,-0.11438 h -0.22876 c -0.14985,0.28527 -0.53419,0.95134 -0.93569,0.61059 -0.51244,-0.43421 -0.66458,-1.70493 -0.84646,-2.32639 -0.62912,-2.15709 -1.79471,-5.9594 0.5239,-7.46861 1.66088,-1.08129 3.85023,1.96503 4.55257,3.12194 1.37491,2.26599 3.37668,6.28369 2.58055,9.0365 -0.27796,0.96279 -1.27884,2.01892 -2.02006,2.66692 -0.86934,0.76067 -1.9663,-0.29192 -2.58628,-0.95158 -0.62683,-0.66767 -1.9171,-2.32776 -1.76955,-3.31674 0.0721,-0.48477 0.57422,-0.873 0.84417,-1.25825 m -12.3537,-0.68632 c -0.31536,-1.12166 -0.57102,-2.27994 -0.75049,-3.43158 -0.10821,-0.69398 -0.0891,-1.47318 -0.0401,-2.17334 0.0726,-1.03565 0.80882,-3.52641 2.27754,-3.14196 0.76295,0.19983 1.37721,1.11047 1.71808,1.76933 1.18847,2.29733 0.78927,3.99963 -1.14615,5.68625 -0.59824,0.52172 -1.26282,1.13723 -2.05895,1.2913 m -32.94322,0.45755 c -0.41225,-1.07043 -0.58073,-2.18546 -0.73482,-3.3172 -0.10671,-0.78434 -0.0963,-1.61113 -0.0614,-2.40211 0.0602,-1.36074 1.76933,-4.37619 3.41192,-2.92897 0.46795,0.41224 0.6282,1.10005 0.8158,1.67072 0.77176,2.34744 0.10535,4.30138 -1.7158,5.8822 -0.53498,0.46429 -1.00008,0.95684 -1.71568,1.09536 m -37.63303,-8.73659 c 1.39768,-0.33869 2.06306,2.19016 2.16761,3.13167 0.22237,2.00279 -0.96633,3.1924 -2.39639,4.41221 -0.43421,0.37039 -1.0122,0.98464 -1.59637,1.09548 -0.76524,0.14515 -0.737449,-2.01995 -0.786289,-2.53365 -0.190682,-2.00233 0.143668,-5.50781 2.611439,-6.10571 m 24.36424,13.19765 c 0.56816,-1.82744 1.49126,-3.00813 1.11401,-5.03299 -0.24112,-1.29463 -0.56529,-2.52531 -0.98051,-3.77474 -0.16221,-0.48786 -0.55592,-1.1974 -0.38675,-1.7158 0.17925,-0.54962 0.75953,-0.90971 1.15645,-1.2905 0.48008,-0.46052 0.85458,-1.05625 1.49891,-1.31991 0.93294,-0.38181 2.16202,0.71686 2.71085,1.35262 1.88394,2.18226 2.77969,5.39205 2.77969,8.23535 0,0.72212 0.1757,1.71991 -0.0849,2.40211 -0.20682,0.54116 -0.76639,0.97709 -1.17326,1.36817 -0.49003,0.47081 -1.22806,1.47398 -1.94468,1.55474 -0.79201,0.0892 -1.82835,-0.96028 -2.5165,-1.29577 -0.69134,-0.3371 -1.45716,-0.27109 -2.17334,-0.48328 m 74.23662,-12.81125 c 0.76868,2.27057 2.28887,4.01541 3.66036,5.94808 1.0352,1.45842 1.90339,3.07458 1.78672,4.91861 -0.0984,1.56903 -1.24453,2.73325 -2.81619,2.38804 -0.51588,-0.11348 -1.01232,-0.36124 -1.48702,-0.58704 -0.52275,-0.24856 -1.21478,-0.35196 -1.68377,-0.68323 -0.71606,-0.50524 -0.61882,-2.58672 -0.76638,-3.4055 -0.23335,-1.28833 -0.59252,-2.50814 -0.90937,-3.77474 -0.12812,-0.51005 -0.42895,-1.18745 -0.32029,-1.71579 0.13612,-0.66504 0.84646,-1.31018 1.25368,-1.83018 0.38091,-0.48706 0.66458,-1.07649 1.28226,-1.25825 m -128.341266,0.68632 -0.114386,0.11438 0.114386,-0.11438 m 0.343159,0.49563 c 0.08842,0 0.0183,0.057 -0.03809,0.0382 l 0.03809,-0.0382 m -1.372634,0.30507 -0.228772,0.22877 v -0.22877 h 0.228772 m 1.372634,0.45755 -0.114386,0.11438 0.114386,-0.11438 M 96.01731,156.1548 c -0.004,1.52054 -0.55969,3.43525 -1.94457,4.27598 -0.79235,0.481 -1.63469,-0.22374 -2.17333,0.8714 l 1.14386,-0.11439 c -0.49152,0.93648 -2.27983,0.67088 -3.20281,0.91509 l -0.11439,-0.11439 v -0.22877 c 1.57715,-1.13402 2.8632,-2.63866 4.23229,-4.0034 0.55443,-0.55271 1.26202,-1.47592 2.05895,-1.60152 m 12.58866,5.37608 c 0.92046,-1.43932 2.65364,-2.20113 4.34049,-2.28315 5.32548,-0.25885 9.98763,3.42244 15.44214,2.52108 1.83212,-0.30278 4.05567,-0.72258 5.03298,-2.52565 -0.72669,0.198 -1.21077,0.84143 -1.94456,1.05361 -1.74347,0.50387 -4.09068,0.20281 -5.83369,-0.18714 -3.8642,-0.86464 -7.66971,-3.45022 -11.78178,-2.45289 -2.72627,0.66126 -4.91174,2.50494 -6.44749,4.78923"
       id="path1025"
       sodipodi:nodetypes="cscccccscccccssccsccscccccccccccsccccccccccccccccccccccccccccccccccccscccccccccscccccccscccccccccccccccccccccccsccccccccccscccccccscccccccccscccccccccscscccccccccscsccccccccccccccccccccccccccccccccccccccccccccccccscccccccccccccccccccccccscccsccscsscccccsscccsccssccccccccccccsccsccccccccccccccccccccccccscccscccccccccccccccccccccccccccccccccccccccsccccccccccsccccccccccccccccccccccccccccccscccccccccsccccc" />
  </g>
</svg>
